<svg width="136" height="170" viewBox="0 0 136 170" fill="none" xmlns="http://www.w3.org/2000/svg">
<g clip-path="url(#clip0_1_79)">
<path d="M125.814 141.483C125.814 142.722 123.044 143.642 122.771 144.838C122.501 146.024 124.147 147.827 123.626 148.96C123.088 150.118 122.452 151.228 121.725 152.277C121.043 153.258 118.935 153.115 118.071 154.034C117.224 154.869 116.328 155.651 115.387 156.376C114.47 157.141 113.227 157.301 112.184 158.006C111.193 158.675 111.313 161.132 110.216 161.742C109.168 162.325 107.564 161.856 106.427 162.38C105.335 162.883 104.76 164.702 103.593 165.146C102.468 165.575 101.076 165.391 99.8862 165.762C98.7349 166.122 97.4469 166.063 96.2405 166.366C95.0691 166.66 94.1744 168.422 92.9559 168.659C91.7686 168.891 90.3772 168.274 89.1495 168.449C87.9507 168.62 86.5564 167.098 85.3231 167.213C84.116 167.326 82.9785 168.031 81.7422 168.087C80.53 168.143 79.3316 168.679 78.0951 168.679C76.8587 168.679 75.5828 169.843 74.3709 169.787C73.1346 169.73 72.0155 167.966 70.8084 167.853C69.575 167.738 68.1038 169.581 66.9048 169.409C65.6772 169.234 64.7049 167.43 63.5176 167.199C62.2987 166.961 60.7245 168.25 59.5528 167.956C58.3463 167.654 57.6302 165.556 56.4788 165.196C55.2894 164.824 53.815 165.328 52.6899 164.899C51.5231 164.454 50.1017 164.525 49.0103 164.022C47.8734 163.498 47.0573 162.259 46.0093 161.676C44.9125 161.066 44.4067 159.553 43.4152 158.883C42.3723 158.179 40.7834 158.269 39.8663 157.504C38.8981 156.696 37.084 156.653 36.2669 155.784C35.4027 154.865 35.053 153.321 34.3707 152.341C33.6521 151.308 35.0624 149.125 34.5607 148.034C34.0402 146.902 31.8635 146.442 31.5934 145.256C31.3148 144.017 31.1719 142.752 31.167 141.483C31.167 140.243 33.0285 139.296 33.3009 138.1C33.5711 136.914 32.201 135.211 32.7218 134.078C33.2236 132.987 33.1595 131.309 33.8783 130.277C34.5607 129.296 36.2635 128.912 37.1277 127.993C37.9448 127.124 39.4073 126.881 40.3755 126.073C41.2925 125.308 41.1757 123 42.2185 122.296C43.21 121.626 44.5944 121.321 45.6912 120.711C46.7393 120.128 48.2224 120.226 49.3593 119.702C50.4506 119.199 52.1598 120.19 53.3264 119.745C54.4515 119.316 55.3641 118.379 56.5536 118.008C57.7048 117.648 58.2458 114.906 59.4521 114.603C60.6235 114.309 62.0648 114.797 63.2834 114.56C64.4707 114.328 66.0682 116.492 67.2959 116.316C68.4948 116.145 69.3914 113.257 70.6247 113.142C71.8318 113.029 73.1929 114.525 74.4291 114.468C75.6413 114.412 76.8585 115.289 78.0951 115.289C79.3314 115.289 80.5633 114.086 81.7752 114.141C83.0114 114.198 84.1015 115.788 85.3085 115.901C86.5419 116.016 88.056 113.598 89.255 113.769C90.4827 113.945 91.4313 115.814 92.6185 116.045C93.8374 116.283 95.3641 115.122 96.5358 115.416C97.7422 115.719 98.4681 117.706 99.6195 118.065C100.809 118.437 101.542 119.838 102.667 120.267C103.834 120.712 106.001 118.631 107.092 119.134C108.229 119.658 109.211 120.564 110.259 121.147C111.356 121.757 113.1 121.45 114.091 122.12C115.134 122.825 115.391 124.716 116.308 125.481C117.276 126.289 118.873 126.532 119.69 127.402C120.554 128.321 120.674 129.968 121.357 130.949C122.075 131.981 122.053 133.412 122.555 134.503C123.075 135.635 124.465 136.492 124.735 137.678C125.007 138.873 125.814 140.243 125.814 141.483Z" fill="#3F3D56"/>
<path d="M129.277 75.0921C130.499 80.8902 131.535 88.2884 130.839 94.8374C130.51 97.9537 129.788 100.881 128.508 103.35C121.797 116.308 111.769 116.816 102.29 111.864C102.069 111.749 101.851 111.633 101.637 111.512C101.201 111.274 100.776 111.026 100.363 110.77C92.1206 105.693 87.9365 97.4645 94.1779 85.4144C96.1096 81.6847 99.6167 78.4056 103.631 75.6274C107.867 72.6963 112.665 70.3234 116.775 68.5623C117.983 68.0413 119.289 67.7903 120.604 67.8267C121.918 67.8632 123.21 68.1863 124.389 68.7735C124.416 68.7873 124.444 68.8011 124.471 68.8167C125.691 69.4327 126.756 70.3171 127.589 71.4037C128.421 72.4904 128.998 73.7512 129.277 75.0921Z" fill="#2A9D8F"/>
<path d="M116.703 83.5487L112.684 91.0078L120.428 86.2269L122.068 85.2136L120.523 86.2986L111.994 92.2858L109.389 97.1225L122.752 89.2138L108.48 98.8116L102.687 109.565L113.522 104.05L102.171 110.523L101.632 111.522L99.2216 115.995L99.2234 115.997L96.6692 120.734L95.6983 122.537L95.3131 123.253L93.5773 122.346L93.9929 121.637L94.8468 120.18L97.9679 114.858L100.357 110.78L107.75 98.1671L107.798 98.0647L107.82 98.0525L108.517 96.8616L107.273 83.7782L109.011 95.9525L108.893 96.2195L114.478 86.6909L114.419 82.0023L114.313 73.7552L115.187 82.5154L115.436 85.0035L116.366 83.3173L124.392 68.7696C124.42 68.7834 124.448 68.7971 124.474 68.8127L118.108 80.9404L126.774 77.401L117.37 82.3093L116.703 83.5487Z" fill="#3F3D56"/>
<path d="M62.9252 10.215C71.7309 17.7096 82.1565 27.9055 88.8956 38.8772C92.1039 44.0965 94.4807 49.4961 95.4501 54.8606C100.544 83.0087 85.662 95.899 65.1148 99.6793C64.6354 99.7678 64.1608 99.8519 63.6864 99.9223C62.7282 100.081 61.7768 100.211 60.8323 100.312C42.0462 102.406 25.7672 94.7263 21.031 68.5498C19.5648 60.4478 21.0694 51.1416 23.9554 41.9975C26.9999 32.3507 31.5797 22.8881 35.8272 15.2019C37.0704 12.9385 38.7886 10.9733 40.8627 9.44289C42.9367 7.91246 45.3168 6.85338 47.8378 6.33924C47.8972 6.32702 47.9566 6.31478 48.0158 6.30711C50.635 5.78762 53.3363 5.86928 55.9181 6.54597C58.4998 7.22267 60.8952 8.47692 62.9252 10.215Z" fill="#2A9D8F"/>
<path d="M53.5995 38.4755L56.2875 54.8551L62.5341 38.1227L63.8557 34.5781L62.7656 38.1193L56.7456 57.6635L58.4895 68.2839L69.6746 39.9382L59.1012 71.9906L62.9766 95.6047L73.1154 74.0091L63.3214 97.7077L63.6819 99.9023L65.2922 109.725L65.2967 109.726L67.0008 120.131L67.6514 124.089L67.9101 125.661L64.1532 126.352L63.9496 124.755L63.531 121.472L62.0043 109.479L60.8313 100.292L57.2075 71.8751L57.1586 71.6594L57.178 71.6142L56.8346 68.9318L39.3332 50.2035L56.5144 66.9298L56.6498 67.4853L53.9121 46.0167L48.2357 38.8394L38.249 26.2162L50.0315 38.7061L53.379 42.2526L52.8041 38.5241L47.853 6.35042C47.9123 6.33821 47.9716 6.32597 48.0307 6.3183L52.659 32.7483L61.8068 16.8226L53.1528 35.7538L53.5995 38.4755Z" fill="#3F3D56"/>
</g>
<defs>
<clipPath id="clip0_1_79">
<rect width="136" height="170" fill="white"/>
</clipPath>
</defs>
</svg>
